<svg width="24" height="24" viewBox="0 0 24 24" fill="none" xmlns="http://www.w3.org/2000/svg">
<path d="M12 12C13.1046 12 14 11.1046 14 10C14 8.89543 13.1046 8 12 8C10.8954 8 10 8.89543 10 10C10 11.1046 10.8954 12 12 12Z" stroke="white" stroke-width="1.4" stroke-linecap="round" stroke-linejoin="round"/>
<path d="M16 18V16.6667C16 15.9594 15.7893 15.2811 15.4142 14.781C15.0391 14.281 14.5304 14 14 14H10C9.46957 14 8.96086 14.281 8.58579 14.781C8.21071 15.2811 8 15.9594 8 16.6667V18" stroke="white" stroke-width="1.4" stroke-linecap="round" stroke-linejoin="round"/>
<path d="M12.0001 20.6036C12.2209 20.4598 12.4366 20.32 12.6473 20.1836C15.1443 18.5665 16.9398 17.4037 18.0228 15.2425C18.0228 15.2425 18.0228 15.2425 18.0228 15.2425L18.2463 15.3545L12.0001 20.6036ZM12.0001 20.6036C11.7798 20.46 11.5645 20.3206 11.3541 20.1844C8.85634 18.5669 7.06067 17.4041 5.9775 15.2425C4.83806 12.9685 4.40579 10.2594 4.25861 7.18558C7.0753 6.2681 9.5848 4.91234 12.0001 3.44594C14.4155 4.91235 16.9247 6.26812 19.7417 7.18558L12.0001 20.6036ZM12.1386 1.79185L12.0001 1.69974L11.8617 1.79185C8.97251 3.7137 6.05019 5.22615 2.92763 6.17046L2.74192 6.22662L2.75023 6.42047C2.87375 9.30143 3.22989 12.0177 4.05447 14.3934L4.05447 14.3934C5.32471 18.0526 8.13556 19.881 11.8677 22.212L12.0001 22.2948L12.1326 22.212C15.8644 19.881 18.6753 18.0526 19.9455 14.3934C20.7704 12.0177 21.1265 9.30142 21.2498 6.42044L21.2581 6.22662L21.0724 6.17046C17.9501 5.22615 15.0278 3.71369 12.1386 1.79185Z" fill="white" stroke="white" stroke-width="0.5"/>
</svg>
