<svg width="25" height="24" viewBox="0 0 25 24" fill="none" xmlns="http://www.w3.org/2000/svg">
<path d="M16.5 21V19C16.5 17.9391 16.1313 16.9217 15.4749 16.1716C14.8185 15.4214 13.9283 15 13 15H6C5.07174 15 4.1815 15.4214 3.52513 16.1716C2.86875 16.9217 2.5 17.9391 2.5 19V21" stroke="white" stroke-width="2" stroke-linecap="round" stroke-linejoin="round"/>
<path d="M10 10C11.933 10 13.5 8.433 13.5 6.5C13.5 4.567 11.933 3 10 3C8.067 3 6.5 4.567 6.5 6.5C6.5 8.433 8.067 10 10 10Z" stroke="white" stroke-width="2" stroke-linecap="round" stroke-linejoin="round"/>
<path d="M22.5 20.9999V18.9999C22.4993 18.1136 22.2044 17.2527 21.6614 16.5522C21.1184 15.8517 20.3581 15.3515 19.5 15.1299" stroke="white" stroke-width="2" stroke-linecap="round" stroke-linejoin="round"/>
<path d="M16.5 3C17.3582 3.19898 18.1188 3.65096 18.662 4.28467C19.2052 4.91838 19.5 5.69778 19.5 6.5C19.5 7.30222 19.2052 8.08162 18.662 8.71533C18.1188 9.34904 17.3582 9.80102 16.5 10" stroke="white" stroke-width="2" stroke-linecap="round" stroke-linejoin="round"/>
</svg>
