<svg width="25" height="24" viewBox="0 0 25 24" fill="none" xmlns="http://www.w3.org/2000/svg">
<path d="M13.5 2C13.2348 2 12.9804 2.10536 12.7929 2.29289C12.6054 2.48043 12.5 2.73478 12.5 3V11C12.5 11.2652 12.6054 11.5196 12.7929 11.7071C12.9804 11.8946 13.2348 12 13.5 12H21.5C21.7652 12 22.0196 11.8946 22.2071 11.7071C22.3946 11.5196 22.5 11.2652 22.5 11C22.5 8.61305 21.5518 6.32387 19.864 4.63604C18.1761 2.94821 15.8869 2 13.5 2ZM14.5 10V4.07C15.9962 4.28561 17.3824 4.97978 18.4513 6.04868C19.5202 7.11759 20.2144 8.50379 20.43 10H14.5Z" fill="white"/>
<path d="M21.3208 14.0601C21.1967 14.0158 21.0651 13.9964 20.9335 14.0031C20.8019 14.0097 20.673 14.0424 20.554 14.099C20.4351 14.1557 20.3285 14.2354 20.2404 14.3334C20.1524 14.4314 20.0845 14.5458 20.0408 14.6701C19.5902 15.944 18.8242 17.0831 17.8143 17.9809C16.8044 18.8787 15.5836 19.5061 14.2657 19.8046C12.9478 20.103 11.5757 20.0628 10.2776 19.6876C8.97943 19.3124 7.79747 18.6145 6.84197 17.659C5.88647 16.7035 5.18857 15.5215 4.81338 14.2234C4.43818 12.9252 4.39793 11.5532 4.69637 10.2353C4.99481 8.91736 5.62221 7.69652 6.52005 6.68664C7.41789 5.67677 8.5569 4.91077 9.83082 4.46012C10.0815 4.3726 10.287 4.1891 10.4024 3.94999C10.5177 3.71088 10.5333 3.43575 10.4458 3.18512C10.3583 2.93449 10.1748 2.7289 9.93569 2.61356C9.69658 2.49823 9.42145 2.4826 9.17082 2.57012C7.57786 3.1329 6.15345 4.09009 5.03054 5.35234C3.90762 6.6146 3.12281 8.14078 2.74934 9.78843C2.37588 11.4361 2.42594 13.1515 2.89486 14.7746C3.36378 16.3976 4.23627 17.8754 5.43089 19.0701C6.62551 20.2647 8.10331 21.1372 9.72638 21.6061C11.3495 22.075 13.0649 22.1251 14.7125 21.7516C16.3602 21.3781 17.8863 20.5933 19.1486 19.4704C20.4109 18.3475 21.368 16.9231 21.9308 15.3301C22.0173 15.0808 22.0017 14.8074 21.8875 14.5695C21.7732 14.3316 21.5695 14.1485 21.3208 14.0601Z" fill="white"/>
</svg>
