<svg width="25" height="24" viewBox="0 0 25 24" fill="none" xmlns="http://www.w3.org/2000/svg">
<path d="M12.5 11C14.7091 11 16.5 9.20914 16.5 7C16.5 4.79086 14.7091 3 12.5 3C10.2909 3 8.5 4.79086 8.5 7C8.5 9.20914 10.2909 11 12.5 11Z" stroke="white" stroke-width="2" stroke-linecap="round" stroke-linejoin="round"/>
<path d="M20.5 21V19C20.5 17.9391 20.0786 16.9217 19.3284 16.1716C18.5783 15.4214 17.5609 15 16.5 15M8.5 15C7.43913 15 6.42172 15.4214 5.67157 16.1716C4.92143 16.9217 4.5 17.9391 4.5 19V21" stroke="white" stroke-width="2" stroke-linecap="round" stroke-linejoin="round"/>
<path d="M11.8859 14.4868C11.9527 14.2016 12.2071 14 12.5 14C12.7929 14 13.0473 14.2016 13.1141 14.4868L14.3559 19.7853C14.4439 20.1608 14.3082 20.5535 14.007 20.7944L13.1247 21.5002C12.7595 21.7924 12.2405 21.7924 11.8753 21.5002L10.993 20.7944C10.6918 20.5535 10.5561 20.1608 10.6441 19.7853L11.8859 14.4868Z" fill="white"/>
</svg>
