<svg width="141" height="50" viewBox="0 0 141 50" fill="none" xmlns="http://www.w3.org/2000/svg">
<g clip-path="url(#clip0)">
<path d="M3.572 20.52V29.592C3.572 30.376 3.66 30.976 3.836 31.392C4.012 31.808 4.292 32.104 4.676 32.28C5.06 32.44 5.596 32.52 6.284 32.52H7.652V33H6.236C5.116 33 4.308 32.744 3.812 32.232C3.332 31.72 3.092 30.84 3.092 29.592V20.52H0.98V20.04H3.092V16.728H3.572V20.04H7.652V20.52H3.572ZM16.2174 19.752C17.7374 19.752 18.9854 20.224 19.9614 21.168C20.9374 22.112 21.4254 23.536 21.4254 25.44V33H20.9694V25.392C20.9694 23.696 20.5454 22.408 19.6974 21.528C18.8494 20.632 17.6894 20.184 16.2174 20.184C14.6814 20.184 13.4494 20.688 12.5214 21.696C11.5934 22.688 11.1294 24.16 11.1294 26.112V33H10.6494V15.24H11.1294V23.688C11.4334 22.376 12.0494 21.392 12.9774 20.736C13.9214 20.08 15.0014 19.752 16.2174 19.752ZM31.0316 32.736C32.4876 32.736 33.7116 32.368 34.7036 31.632C35.6956 30.896 36.2956 29.888 36.5036 28.608H36.9836C36.7596 29.968 36.1196 31.072 35.0636 31.92C34.0236 32.752 32.6796 33.168 31.0316 33.168C29.8316 33.168 28.7596 32.904 27.8156 32.376C26.8716 31.848 26.1276 31.08 25.5836 30.072C25.0556 29.064 24.7916 27.88 24.7916 26.52C24.7916 25.16 25.0556 23.976 25.5836 22.968C26.1276 21.96 26.8716 21.192 27.8156 20.664C28.7596 20.136 29.8316 19.872 31.0316 19.872C32.2956 19.872 33.3756 20.144 34.2716 20.688C35.1676 21.216 35.8396 21.904 36.2876 22.752C36.7516 23.6 36.9836 24.496 36.9836 25.44C36.9836 25.92 36.9516 26.352 36.8876 26.736H25.2716C25.2876 28.064 25.5596 29.176 26.0876 30.072C26.6316 30.968 27.3356 31.64 28.1996 32.088C29.0636 32.52 30.0076 32.736 31.0316 32.736ZM31.0316 20.304C30.0076 20.304 29.0636 20.528 28.1996 20.976C27.3356 21.408 26.6316 22.072 26.0876 22.968C25.5596 23.864 25.2876 24.976 25.2716 26.304H36.5516C36.6316 24.976 36.4156 23.864 35.9036 22.968C35.4076 22.072 34.7196 21.408 33.8396 20.976C32.9756 20.528 32.0396 20.304 31.0316 20.304Z" fill="white"/>
<path d="M48.508 24.24C49.548 24.464 50.388 24.96 51.028 25.728C51.684 26.496 52.012 27.4 52.012 28.44C52.012 29.816 51.54 30.92 50.596 31.752C49.668 32.584 48.316 33 46.54 33H40.252V16.08H46.444C48.14 16.08 49.428 16.456 50.308 17.208C51.188 17.96 51.628 18.992 51.628 20.304C51.628 21.392 51.332 22.272 50.74 22.944C50.164 23.616 49.42 24.048 48.508 24.24ZM42.436 23.496H46.084C47.156 23.496 47.972 23.248 48.532 22.752C49.108 22.256 49.396 21.56 49.396 20.664C49.396 19.8 49.116 19.12 48.556 18.624C47.996 18.128 47.14 17.88 45.988 17.88H42.436V23.496ZM46.132 31.176C47.284 31.176 48.172 30.912 48.796 30.384C49.436 29.856 49.756 29.112 49.756 28.152C49.756 27.208 49.428 26.472 48.772 25.944C48.132 25.4 47.236 25.128 46.084 25.128H42.436V31.176H46.132ZM54.3524 15.96C54.3524 15.56 54.4884 15.24 54.7604 15C55.0324 14.744 55.3924 14.616 55.8404 14.616C56.2884 14.616 56.6484 14.744 56.9204 15C57.1924 15.24 57.3284 15.56 57.3284 15.96C57.3284 16.36 57.1924 16.688 56.9204 16.944C56.6484 17.184 56.2884 17.304 55.8404 17.304C55.3924 17.304 55.0324 17.184 54.7604 16.944C54.4884 16.688 54.3524 16.36 54.3524 15.96ZM56.9204 19.824V33H54.7364V19.824H56.9204ZM62.6157 22.488C63.0477 21.576 63.6797 20.872 64.5117 20.376C65.3437 19.864 66.3357 19.608 67.4877 19.608V21.984H66.8157C65.5837 21.984 64.5757 22.304 63.7917 22.944C63.0077 23.568 62.6157 24.608 62.6157 26.064V33H60.4317V19.824H62.6157V22.488ZM75.0426 19.656C76.3226 19.656 77.4026 19.976 78.2826 20.616C79.1786 21.256 79.8026 22.112 80.1546 23.184V15.24H82.3386V33H80.1546V29.64C79.8026 30.712 79.1786 31.568 78.2826 32.208C77.4026 32.848 76.3226 33.168 75.0426 33.168C73.8746 33.168 72.8346 32.896 71.9226 32.352C71.0106 31.808 70.2906 31.032 69.7626 30.024C69.2506 29 68.9946 27.8 68.9946 26.424C68.9946 25.048 69.2506 23.848 69.7626 22.824C70.2906 21.8 71.0106 21.016 71.9226 20.472C72.8346 19.928 73.8746 19.656 75.0426 19.656ZM75.6666 21.6C74.3226 21.6 73.2426 22.032 72.4266 22.896C71.6266 23.744 71.2266 24.92 71.2266 26.424C71.2266 27.928 71.6266 29.112 72.4266 29.976C73.2426 30.824 74.3226 31.248 75.6666 31.248C76.5306 31.248 77.2986 31.048 77.9706 30.648C78.6586 30.248 79.1946 29.688 79.5786 28.968C79.9626 28.232 80.1546 27.384 80.1546 26.424C80.1546 25.464 79.9626 24.616 79.5786 23.88C79.1946 23.144 78.6586 22.584 77.9706 22.2C77.2986 21.8 76.5306 21.6 75.6666 21.6ZM89.9425 19.656C91.4305 19.656 92.6225 20.048 93.5185 20.832C94.4305 21.6 94.9825 22.64 95.1745 23.952H93.0865C92.9905 23.168 92.6625 22.528 92.1025 22.032C91.5585 21.52 90.8225 21.264 89.8945 21.264C89.1105 21.264 88.4945 21.456 88.0465 21.84C87.6145 22.208 87.3985 22.712 87.3985 23.352C87.3985 23.832 87.5425 24.224 87.8305 24.528C88.1345 24.816 88.5025 25.04 88.9345 25.2C89.3825 25.344 89.9905 25.504 90.7585 25.68C91.7345 25.904 92.5185 26.136 93.1105 26.376C93.7185 26.6 94.2305 26.968 94.6465 27.48C95.0785 27.992 95.2945 28.68 95.2945 29.544C95.2945 30.616 94.8865 31.488 94.0705 32.16C93.2705 32.832 92.1985 33.168 90.8545 33.168C89.2865 33.168 88.0065 32.792 87.0145 32.04C86.0225 31.288 85.4385 30.24 85.2625 28.896H87.3745C87.4545 29.696 87.7985 30.344 88.4065 30.84C89.0305 31.336 89.8465 31.584 90.8545 31.584C91.6065 31.584 92.1905 31.392 92.6065 31.008C93.0385 30.624 93.2545 30.12 93.2545 29.496C93.2545 28.984 93.1025 28.576 92.7985 28.272C92.4945 27.968 92.1185 27.736 91.6705 27.576C91.2225 27.416 90.6065 27.248 89.8225 27.072C88.8465 26.848 88.0625 26.624 87.4705 26.4C86.8945 26.176 86.3985 25.824 85.9825 25.344C85.5825 24.848 85.3825 24.184 85.3825 23.352C85.3825 22.248 85.7905 21.36 86.6065 20.688C87.4225 20 88.5345 19.656 89.9425 19.656Z" fill="white"/>
<path d="M102.524 19.776V22.584H108.02V26.16H102.524V29.232H108.74V33H97.796V16.008H108.74V19.776H102.524ZM126.402 16.008L120.402 27.6V33H115.698V27.6L109.698 16.008H115.098L118.098 22.488L121.074 16.008H126.402ZM132.524 19.776V22.584H138.02V26.16H132.524V29.232H138.74V33H127.796V16.008H138.74V19.776H132.524Z" fill="white"/>
</g>
<defs>
<clipPath id="clip0">
<rect x="0.5" y="-3" width="140" height="56" fill="white"/>
</clipPath>
</defs>
</svg>
